# xmcd CD database file
#
# Track frame offsets:
#	150
#	19615
#	42152
#	65175
#	87312
#	106925
#
# Disc length: 4440 seconds
#
# Revision: 0
# Processed by: cddbd v1.5PL3 Copyright (c) Steve Scherf et al.
# Submitted via: CDex 1.40Release
#
DISCID=47115606
DTITLE=EXILE - Breezin’ 〜Together〜
DYEAR=2003
DGENRE=J-POP
TTITLE0=Together
TTITLE1=Time
TTITLE2=BLUE 〜云えずにいる〜
TTITLE3=砂時計
TTITLE4=Together 〜a cappela version〜
TTITLE5=data
EXTD=YEAR: 2003
EXTT0=
EXTT1=
EXTT2=
EXTT3=
EXTT4=
EXTT5=
PLAYORDER=
